<svg width="200.0328857421875px" height="50px" xmlns="http://www.w3.org/2000/svg" viewBox="149.98355712890626 50 200.0328857421875 50" style="background: rgba(0, 0, 0, 0);" preserveAspectRatio="xMidYMid">
<defs>
<filter id="editing-extrusion" x="-100%" y="-100%" width="300%" height="300%"><feFlood result="color1" flood-color="#000000"></feFlood><feConvolveMatrix order="3,3" divisor="1" kernelMatrix="1 0 0 0 1 0 0 0 1" in="SourceAlpha" result="extrude"></feConvolveMatrix><feComposite in="color1" in2="extrude" result="comp-extrude" operator="in"></feComposite><feOffset dx="1.5" dy="1.5" in="comp-extrude" result="offset-extrude"></feOffset><feMerge><feMergeNode in="offset-extrude"></feMergeNode><feMergeNode in="SourceGraphic"></feMergeNode></feMerge></filter></defs><g filter="url(#editing-extrusion)"><g transform="translate(183.61671781539917, 82.04500150680542)"><path d="M4.70-11.15L4.70-11.15Q6.53-11.15 7.86-10.47L7.86-10.47L7.86-10.47Q9.20-9.79 9.91-8.53L9.91-8.53L9.91-8.53Q10.62-7.26 10.62-5.55L10.62-5.55L10.62-5.55Q10.62-3.84 9.91-2.58L9.91-2.58L9.91-2.58Q9.20-1.33 7.86-0.66L7.86-0.66L7.86-0.66Q6.53 0 4.70 0L4.70 0L1.23 0L1.23-11.15L4.70-11.15ZM4.70-1.12L4.70-1.12Q6.85-1.12 7.99-2.30L7.99-2.30L7.99-2.30Q9.14-3.47 9.14-5.55L9.14-5.55L9.14-5.55Q9.14-7.63 7.99-8.80L7.99-8.80L7.99-8.80Q6.85-9.97 4.70-9.97L4.70-9.97L2.69-9.97L2.69-1.12L4.70-1.12ZM20.54-4.75L20.54-4.75Q20.54-4.35 20.50-3.89L20.50-3.89L13.49-3.89L13.49-3.89Q13.55-2.59 14.36-1.84L14.36-1.84L14.36-1.84Q15.17-1.09 16.34-1.09L16.34-1.09L16.34-1.09Q17.28-1.09 17.91-1.53L17.91-1.53L17.91-1.53Q18.54-1.97 18.80-2.70L18.80-2.70L20.37-2.70L20.37-2.70Q20.02-1.44 18.96-0.65L18.96-0.65L18.96-0.65Q17.90 0.14 16.34 0.14L16.34 0.14L16.34 0.14Q15.09 0.14 14.10-0.42L14.10-0.42L14.10-0.42Q13.12-0.98 12.56-2.01L12.56-2.01L12.56-2.01Q12-3.04 12-4.40L12-4.40L12-4.40Q12-5.76 12.54-6.78L12.54-6.78L12.54-6.78Q13.09-7.81 14.07-8.36L14.07-8.36L14.07-8.36Q15.06-8.91 16.34-8.91L16.34-8.91L16.34-8.91Q17.58-8.91 18.54-8.37L18.54-8.37L18.54-8.37Q19.49-7.82 20.02-6.88L20.02-6.88L20.02-6.88Q20.54-5.94 20.54-4.75L20.54-4.75ZM19.04-4.94L19.04-4.94Q19.04-5.81 18.67-6.42L18.67-6.42L18.67-6.42Q18.30-7.04 17.67-7.36L17.67-7.36L17.67-7.36Q17.04-7.68 16.27-7.68L16.27-7.68L16.27-7.68Q15.15-7.68 14.37-6.95L14.37-6.95L14.37-6.95Q13.58-6.22 13.50-4.94L13.50-4.94L19.04-4.94ZM26.74-8.93L26.74-8.93Q28.34-8.93 29.33-7.96L29.33-7.96L29.33-7.96Q30.32-6.99 30.32-5.17L30.32-5.17L30.32 0L28.88 0L28.88-4.96L28.88-4.96Q28.88-6.27 28.22-6.97L28.22-6.97L28.22-6.97Q27.57-7.66 26.43-7.66L26.43-7.66L26.43-7.66Q25.28-7.66 24.60-6.94L24.60-6.94L24.60-6.94Q23.92-6.22 23.92-4.85L23.92-4.85L23.92 0L22.46 0L22.46-8.77L23.92-8.77L23.92-7.52L23.92-7.52Q24.35-8.19 25.10-8.56L25.10-8.56L25.10-8.56Q25.84-8.93 26.74-8.93L26.74-8.93ZM33.46-10.19L33.46-10.19Q33.04-10.19 32.75-10.48L32.75-10.48L32.75-10.48Q32.46-10.77 32.46-11.18L32.46-11.18L32.46-11.18Q32.46-11.60 32.75-11.89L32.75-11.89L32.75-11.89Q33.04-12.18 33.46-12.18L33.46-12.18L33.46-12.18Q33.86-12.18 34.14-11.89L34.14-11.89L34.14-11.89Q34.42-11.60 34.42-11.18L34.42-11.18L34.42-11.18Q34.42-10.77 34.14-10.48L34.14-10.48L34.14-10.48Q33.86-10.19 33.46-10.19L33.46-10.19ZM32.70-8.77L34.16-8.77L34.16 0L32.70 0L32.70-8.77ZM42-7.58L37.73-1.20L42.03-1.20L42.03 0L36.06 0L36.06-1.20L40.32-7.58L36.10-7.58L36.10-8.77L42-8.77L42-7.58ZM48.14-5.58L48.14-5.58Q48.14-7.22 48.88-8.52L48.88-8.52L48.88-8.52Q49.62-9.82 50.89-10.56L50.89-10.56L50.89-10.56Q52.16-11.30 53.71-11.30L53.71-11.30L53.71-11.30Q55.54-11.30 56.90-10.42L56.90-10.42L56.90-10.42Q58.26-9.54 58.88-7.92L58.88-7.92L57.14-7.92L57.14-7.92Q56.67-8.90 55.80-9.43L55.80-9.43L55.80-9.43Q54.93-9.97 53.71-9.97L53.71-9.97L53.71-9.97Q52.54-9.97 51.62-9.43L51.62-9.43L51.62-9.43Q50.69-8.90 50.16-7.90L50.16-7.90L50.16-7.90Q49.63-6.90 49.63-5.58L49.63-5.58L49.63-5.58Q49.63-4.27 50.16-3.28L50.16-3.28L50.16-3.28Q50.69-2.29 51.62-1.75L51.62-1.75L51.62-1.75Q52.54-1.22 53.71-1.22L53.71-1.22L53.71-1.22Q54.93-1.22 55.80-1.74L55.80-1.74L55.80-1.74Q56.67-2.27 57.14-3.25L57.14-3.25L58.88-3.25L58.88-3.25Q58.26-1.65 56.90-0.78L56.90-0.78L56.90-0.78Q55.54 0.10 53.71 0.10L53.71 0.10L53.71 0.10Q52.16 0.10 50.89-0.63L50.89-0.63L50.89-0.63Q49.62-1.36 48.88-2.66L48.88-2.66L48.88-2.66Q48.14-3.95 48.14-5.58L48.14-5.58ZM60.50-4.42L60.50-4.42Q60.50-5.76 61.04-6.78L61.04-6.78L61.04-6.78Q61.58-7.79 62.54-8.35L62.54-8.35L62.54-8.35Q63.49-8.91 64.66-8.91L64.66-8.91L64.66-8.91Q65.81-8.91 66.66-8.42L66.66-8.42L66.66-8.42Q67.50-7.92 67.92-7.17L67.92-7.17L67.92-8.77L69.39-8.77L69.39 0L67.92 0L67.92-1.63L67.92-1.63Q67.49-0.86 66.63-0.36L66.63-0.36L66.63-0.36Q65.78 0.14 64.64 0.14L64.64 0.14L64.64 0.14Q63.47 0.14 62.53-0.43L62.53-0.43L62.53-0.43Q61.58-1.01 61.04-2.05L61.04-2.05L61.04-2.05Q60.50-3.09 60.50-4.42L60.50-4.42ZM67.92-4.40L67.92-4.40Q67.92-5.39 67.52-6.13L67.52-6.13L67.52-6.13Q67.12-6.86 66.44-7.26L66.44-7.26L66.44-7.26Q65.76-7.65 64.94-7.65L64.94-7.65L64.94-7.65Q64.13-7.65 63.46-7.26L63.46-7.26L63.46-7.26Q62.78-6.88 62.38-6.14L62.38-6.14L62.38-6.14Q61.98-5.41 61.98-4.42L61.98-4.42L61.98-4.42Q61.98-3.41 62.38-2.66L62.38-2.66L62.38-2.66Q62.78-1.92 63.46-1.53L63.46-1.53L63.46-1.53Q64.13-1.14 64.94-1.14L64.94-1.14L64.94-1.14Q65.76-1.14 66.44-1.53L66.44-1.53L66.44-1.53Q67.12-1.92 67.52-2.66L67.52-2.66L67.52-2.66Q67.92-3.41 67.92-4.40L67.92-4.40ZM76.13-8.93L76.13-8.93Q77.73-8.93 78.72-7.96L78.72-7.96L78.72-7.96Q79.71-6.99 79.71-5.17L79.71-5.17L79.71 0L78.27 0L78.27-4.96L78.27-4.96Q78.27-6.27 77.62-6.97L77.62-6.97L77.62-6.97Q76.96-7.66 75.82-7.66L75.82-7.66L75.82-7.66Q74.67-7.66 73.99-6.94L73.99-6.94L73.99-6.94Q73.31-6.22 73.31-4.85L73.31-4.85L73.31 0L71.86 0L71.86-8.77L73.31-8.77L73.31-7.52L73.31-7.52Q73.74-8.19 74.49-8.56L74.49-8.56L74.49-8.56Q75.23-8.93 76.13-8.93L76.13-8.93ZM91.92 0.11L91.92 0.11Q90.37 0.11 89.09-0.62L89.09-0.62L89.09-0.62Q87.81-1.34 87.06-2.65L87.06-2.65L87.06-2.65Q86.32-3.95 86.32-5.58L86.32-5.58L86.32-5.58Q86.32-7.22 87.06-8.52L87.06-8.52L87.06-8.52Q87.81-9.82 89.09-10.55L89.09-10.55L89.09-10.55Q90.37-11.28 91.92-11.28L91.92-11.28L91.92-11.28Q93.49-11.28 94.77-10.55L94.77-10.55L94.77-10.55Q96.05-9.82 96.78-8.53L96.78-8.53L96.78-8.53Q97.52-7.23 97.52-5.58L97.52-5.58L97.52-5.58Q97.52-3.94 96.78-2.64L96.78-2.64L96.78-2.64Q96.05-1.34 94.77-0.62L94.77-0.62L94.77-0.62Q93.49 0.11 91.92 0.11L91.92 0.11ZM91.92-1.20L91.92-1.20Q93.09-1.20 94.02-1.74L94.02-1.74L94.02-1.74Q94.96-2.29 95.50-3.28L95.50-3.28L95.50-3.28Q96.03-4.27 96.03-5.58L96.03-5.58L96.03-5.58Q96.03-6.90 95.50-7.90L95.50-7.90L95.50-7.90Q94.96-8.90 94.02-9.43L94.02-9.43L94.02-9.43Q93.09-9.97 91.92-9.97L91.92-9.97L91.92-9.97Q90.75-9.97 89.82-9.43L89.82-9.43L89.82-9.43Q88.88-8.90 88.34-7.90L88.34-7.90L88.34-7.90Q87.81-6.90 87.81-5.58L87.81-5.58L87.81-5.58Q87.81-4.27 88.34-3.28L88.34-3.28L88.34-3.28Q88.88-2.29 89.82-1.74L89.82-1.74L89.82-1.74Q90.75-1.20 91.92-1.20L91.92-1.20ZM90.67-12.27L90.67-12.27Q90.32-12.27 90.07-12.51L90.07-12.51L90.07-12.51Q89.82-12.75 89.82-13.10L89.82-13.10L89.82-13.10Q89.82-13.46 90.07-13.70L90.07-13.70L90.07-13.70Q90.32-13.95 90.67-13.95L90.67-13.95L90.67-13.95Q91.01-13.95 91.26-13.70L91.26-13.70L91.26-13.70Q91.50-13.46 91.50-13.10L91.50-13.10L91.50-13.10Q91.50-12.75 91.26-12.51L91.26-12.51L91.26-12.51Q91.01-12.27 90.67-12.27L90.67-12.27ZM93.26-12.27L93.26-12.27Q92.91-12.27 92.67-12.51L92.67-12.51L92.67-12.51Q92.43-12.75 92.43-13.10L92.43-13.10L92.43-13.10Q92.43-13.46 92.67-13.70L92.67-13.70L92.67-13.70Q92.91-13.95 93.26-13.95L93.26-13.95L93.26-13.95Q93.62-13.95 93.86-13.70L93.86-13.70L93.86-13.70Q94.11-13.46 94.11-13.10L94.11-13.10L94.11-13.10Q94.11-12.75 93.86-12.51L93.86-12.51L93.86-12.51Q93.62-12.27 93.26-12.27L93.26-12.27ZM104.80-7.58L100.53-1.20L104.83-1.20L104.83 0L98.86 0L98.86-1.20L103.12-7.58L98.90-7.58L98.90-8.77L104.80-8.77L104.80-7.58ZM106.18-4.42L106.18-4.42Q106.18-5.76 106.72-6.78L106.72-6.78L106.72-6.78Q107.26-7.79 108.22-8.35L108.22-8.35L108.22-8.35Q109.17-8.91 110.35-8.91L110.35-8.91L110.35-8.91Q111.38-8.91 112.26-8.44L112.26-8.44L112.26-8.44Q113.14-7.97 113.60-7.20L113.60-7.20L113.60-11.84L115.07-11.84L115.07 0L113.60 0L113.60-1.65L113.60-1.65Q113.17-0.86 112.32-0.36L112.32-0.36L112.32-0.36Q111.47 0.14 110.34 0.14L110.34 0.14L110.34 0.14Q109.17 0.14 108.22-0.43L108.22-0.43L108.22-0.43Q107.26-1.01 106.72-2.05L106.72-2.05L106.72-2.05Q106.18-3.09 106.18-4.42L106.18-4.42ZM113.60-4.40L113.60-4.40Q113.60-5.39 113.20-6.13L113.20-6.13L113.20-6.13Q112.80-6.86 112.12-7.26L112.12-7.26L112.12-7.26Q111.44-7.65 110.62-7.65L110.62-7.65L110.62-7.65Q109.81-7.65 109.14-7.26L109.14-7.26L109.14-7.26Q108.46-6.88 108.06-6.14L108.06-6.14L108.06-6.14Q107.66-5.41 107.66-4.42L107.66-4.42L107.66-4.42Q107.66-3.41 108.06-2.66L108.06-2.66L108.06-2.66Q108.46-1.92 109.14-1.53L109.14-1.53L109.14-1.53Q109.81-1.14 110.62-1.14L110.62-1.14L110.62-1.14Q111.44-1.14 112.12-1.53L112.12-1.53L112.12-1.53Q112.80-1.92 113.20-2.66L113.20-2.66L113.20-2.66Q113.60-3.41 113.60-4.40L113.60-4.40ZM125.54-4.75L125.54-4.75Q125.54-4.35 125.49-3.89L125.49-3.89L118.48-3.89L118.48-3.89Q118.54-2.59 119.35-1.84L119.35-1.84L119.35-1.84Q120.16-1.09 121.33-1.09L121.33-1.09L121.33-1.09Q122.27-1.09 122.90-1.53L122.90-1.53L122.90-1.53Q123.54-1.97 123.79-2.70L123.79-2.70L125.36-2.70L125.36-2.70Q125.01-1.44 123.95-0.65L123.95-0.65L123.95-0.65Q122.90 0.14 121.33 0.14L121.33 0.14L121.33 0.14Q120.08 0.14 119.10-0.42L119.10-0.42L119.10-0.42Q118.11-0.98 117.55-2.01L117.55-2.01L117.55-2.01Q116.99-3.04 116.99-4.40L116.99-4.40L116.99-4.40Q116.99-5.76 117.54-6.78L117.54-6.78L117.54-6.78Q118.08-7.81 119.06-8.36L119.06-8.36L119.06-8.36Q120.05-8.91 121.33-8.91L121.33-8.91L121.33-8.91Q122.58-8.91 123.53-8.37L123.53-8.37L123.53-8.37Q124.48-7.82 125.01-6.88L125.01-6.88L125.01-6.88Q125.54-5.94 125.54-4.75L125.54-4.75ZM124.03-4.94L124.03-4.94Q124.03-5.81 123.66-6.42L123.66-6.42L123.66-6.42Q123.30-7.04 122.66-7.36L122.66-7.36L122.66-7.36Q122.03-7.68 121.26-7.68L121.26-7.68L121.26-7.68Q120.14-7.68 119.36-6.95L119.36-6.95L119.36-6.95Q118.58-6.22 118.50-4.94L118.50-4.94L124.03-4.94ZM128.91-7.10L128.91-7.10Q129.30-7.97 130.01-8.45L130.01-8.45L130.01-8.45Q130.72-8.93 131.74-8.93L131.74-8.93L131.74-7.42L131.36-7.42L131.36-7.42Q128.91-7.42 128.91-4.77L128.91-4.77L128.91 0L127.46 0L127.46-8.77L128.91-8.77L128.91-7.10Z" fill="#8f8080"></path></g></g><style>text {
  font-size: 100px;
  font-family: Arial Black;
  dominant-baseline: central;
  text-anchor: middle;
}</style></svg>